<?xml version="1.0" standalone="no"?>
<!DOCTYPE svg PUBLIC "-//W3C//DTD SVG 20010904//EN"
 "http://www.w3.org/TR/2001/REC-SVG-20010904/DTD/svg10.dtd">
<svg version="1.0" xmlns="http://www.w3.org/2000/svg"
 width="16.000000pt" height="16.000000pt" viewBox="0 0 16.000000 16.000000"
 preserveAspectRatio="xMidYMid meet">
<metadata>
Created by potrace 1.11, written by Peter Selinger 2001-2013
</metadata>
<g transform="translate(0.000000,16.000000) scale(0.006154,-0.006154)"
fill="#000000" stroke="none">
<path d="M935 2170 c-85 -32 -166 -55 -228 -64 -51 -8 -75 -25 -86 -61 -14
-43 -23 -168 -14 -181 13 -18 50 -34 81 -34 30 0 58 -22 49 -37 -3 -5 -8 -36
-12 -70 -3 -34 -7 -70 -9 -80 -2 -10 -7 -43 -11 -73 -4 -30 -9 -62 -10 -70 -5
-27 -15 -114 -21 -185 -3 -38 -9 -101 -14 -140 -8 -77 -5 -420 4 -530 12 -128
32 -158 145 -214 128 -62 163 -38 177 124 4 50 8 104 10 120 1 17 3 35 3 42 1
7 26 -5 59 -26 31 -21 71 -46 87 -55 17 -9 53 -30 80 -47 122 -74 325 -160
410 -173 39 -6 57 4 155 96 66 62 93 80 136 93 62 18 79 40 71 96 -7 52 -23
65 -110 89 -177 47 -336 129 -502 260 -66 52 -199 180 -193 186 2 1 44 5 93 8
50 4 108 8 130 11 22 2 72 7 110 10 197 16 352 56 409 105 31 28 64 108 52
128 -2 4 -6 34 -10 67 -7 71 -12 99 -31 183 -8 34 -17 76 -20 93 -18 102 -98
170 -280 242 -173 69 -340 105 -520 112 -104 5 -114 3 -190 -25z m300 -484
c108 -17 196 -36 280 -62 109 -34 116 -39 85 -63 -26 -20 -92 -41 -195 -61
-33 -7 -67 -16 -76 -21 -19 -9 -195 -49 -220 -49 -15 0 -14 12 7 133 13 72 24
133 24 133 0 2 52 -3 95 -10z"/>
</g>
</svg>
